<?xml version="1.0" standalone="no"?><svg xmlns="http://www.w3.org/2000/svg" viewBox="0 0 1440 320"><path fill="#0099ff" fill-opacity="1" d="M0,128L8.3,106.7C16.6,85,33,43,50,26.7C66.2,11,83,21,99,32C115.9,43,132,53,149,64C165.5,75,182,85,199,122.7C215.2,160,232,224,248,234.7C264.8,245,281,203,298,176C314.5,149,331,139,348,117.3C364.1,96,381,64,397,58.7C413.8,53,430,75,447,74.7C463.4,75,480,53,497,64C513.1,75,530,117,546,138.7C562.8,160,579,160,596,176C612.4,192,629,224,646,208C662.1,192,679,128,695,122.7C711.7,117,728,171,745,165.3C761.4,160,778,96,794,101.3C811,107,828,181,844,224C860.7,267,877,277,894,234.7C910.3,192,927,96,943,90.7C960,85,977,171,993,197.3C1009.7,224,1026,192,1043,181.3C1059.3,171,1076,181,1092,176C1109,171,1126,149,1142,138.7C1158.6,128,1175,128,1192,112C1208.3,96,1225,64,1241,58.7C1257.9,53,1274,75,1291,101.3C1307.6,128,1324,160,1341,160C1357.2,160,1374,128,1390,101.3C1406.9,75,1423,53,1432,42.7L1440,32L1440,320L1431.7,320C1423.4,320,1407,320,1390,320C1373.8,320,1357,320,1341,320C1324.1,320,1308,320,1291,320C1274.5,320,1258,320,1241,320C1224.8,320,1208,320,1192,320C1175.2,320,1159,320,1142,320C1125.5,320,1109,320,1092,320C1075.9,320,1059,320,1043,320C1026.2,320,1010,320,993,320C976.6,320,960,320,943,320C926.9,320,910,320,894,320C877.2,320,861,320,844,320C827.6,320,811,320,794,320C777.9,320,761,320,745,320C728.3,320,712,320,695,320C678.6,320,662,320,646,320C629,320,612,320,596,320C579.3,320,563,320,546,320C529.7,320,513,320,497,320C480,320,463,320,447,320C430.3,320,414,320,397,320C380.7,320,364,320,348,320C331,320,314,320,298,320C281.4,320,265,320,248,320C231.7,320,215,320,199,320C182.1,320,166,320,149,320C132.4,320,116,320,99,320C82.8,320,66,320,50,320C33.1,320,17,320,8,320L0,320Z"></path></svg>