<svg data-v-d3f97b9e="" xmlns="http://www.w3.org/2000/svg" viewBox="0 0 573 90"><!----><!----><!----><g data-v-d3f97b9e="" id="2b8875c2-b07d-4f35-8ac8-c6d6646f071d" fill="white" transform="matrix(5.102040717026833,0,0,5.102040717026833,110.7635077309703,-10)"><path d="M9.80 5.18L11.68 11.47L13.86 5.39L13.86 5.39Q14.06 4.84 14.14 4.52L14.14 4.52L14.14 4.52Q14.22 4.20 14.22 3.96L14.22 3.96L14.22 3.96Q14.22 3.60 13.99 3.46L13.99 3.46L13.99 3.46Q13.76 3.33 13.17 3.33L13.17 3.33L13.17 2.80L16.58 2.80L16.58 3.33L16.58 3.33Q15.93 3.33 15.60 3.60L15.60 3.60L15.60 3.60Q15.27 3.86 15.05 4.47L15.05 4.47L11.54 13.72L11.05 13.72L8.36 5.75L5.38 13.72L4.89 13.72L1.97 5.68L1.97 5.68Q1.72 5.01 1.52 4.56L1.52 4.56L1.52 4.56Q1.32 4.10 1.08 3.84L1.08 3.84L1.08 3.84Q0.85 3.57 0.56 3.46L0.56 3.46L0.56 3.46Q0.27 3.35-0.15 3.35L-0.15 3.35L-0.15 2.80L4.41 2.80L4.41 3.35L4.41 3.35Q3.70 3.35 3.41 3.47L3.41 3.47L3.41 3.47Q3.12 3.60 3.12 3.96L3.12 3.96L3.12 3.96Q3.12 4.14 3.18 4.38L3.18 4.38L3.18 4.38Q3.23 4.62 3.35 4.94L3.35 4.94L5.47 11.42L7.20 6.58L7.20 6.58Q7.39 6.03 7.58 5.56L7.58 5.56L7.58 5.56Q7.77 5.10 7.88 4.72L7.88 4.72L7.88 4.72Q7.69 4.31 7.53 4.05L7.53 4.05L7.53 4.05Q7.36 3.78 7.20 3.63L7.20 3.63L7.20 3.63Q7.04 3.47 6.87 3.41L6.87 3.41L6.87 3.41Q6.69 3.35 6.50 3.35L6.50 3.35L6.50 2.80L10.78 2.80L10.78 3.35L10.78 3.35Q10.37 3.35 10.12 3.37L10.12 3.37L10.12 3.37Q9.87 3.40 9.74 3.46L9.74 3.46L9.74 3.46Q9.60 3.53 9.55 3.64L9.55 3.64L9.55 3.64Q9.51 3.75 9.51 3.91L9.51 3.91L9.51 3.91Q9.51 4.12 9.58 4.42L9.58 4.42L9.58 4.42Q9.66 4.72 9.80 5.18L9.80 5.18ZM22.26 11.89L22.69 12.28L22.69 12.28Q21.50 13.72 19.74 13.72L19.74 13.72L19.74 13.72Q18.91 13.72 18.24 13.45L18.24 13.45L18.24 13.45Q17.57 13.17 17.09 12.68L17.09 12.68L17.09 12.68Q16.60 12.18 16.34 11.49L16.34 11.49L16.34 11.49Q16.07 10.79 16.07 9.95L16.07 9.95L16.07 9.95Q16.07 9.10 16.35 8.37L16.35 8.37L16.35 8.37Q16.63 7.64 17.14 7.13L17.14 7.13L17.14 7.13Q17.65 6.61 18.36 6.31L18.36 6.31L18.36 6.31Q19.07 6.02 19.91 6.02L19.91 6.02L19.91 6.02Q21.27 6.02 22.01 6.75L22.01 6.75L22.01 6.75Q22.75 7.49 22.75 8.86L22.75 8.86L22.75 8.86Q22.75 9.06 22.67 9.10L22.67 9.10L22.67 9.10Q22.60 9.14 22.32 9.14L22.32 9.14L17.71 9.14L17.71 9.14Q17.68 9.25 17.67 9.41L17.67 9.41L17.67 9.41Q17.65 9.58 17.65 9.77L17.65 9.77L17.65 9.77Q17.65 10.50 17.83 11.10L17.83 11.10L17.83 11.10Q18.00 11.69 18.33 12.11L18.33 12.11L18.33 12.11Q18.66 12.53 19.12 12.76L19.12 12.76L19.12 12.76Q19.57 12.99 20.13 12.99L20.13 12.99L20.13 12.99Q20.72 12.99 21.22 12.73L21.22 12.73L21.22 12.73Q21.73 12.47 22.26 11.89L22.26 11.89ZM17.81 8.50L20.38 8.50L20.38 8.50Q20.66 8.50 20.83 8.48L20.83 8.48L20.83 8.48Q21 8.47 21.08 8.43L21.08 8.43L21.08 8.43Q21.17 8.39 21.20 8.31L21.20 8.31L21.20 8.31Q21.22 8.23 21.22 8.11L21.22 8.11L21.22 8.11Q21.22 7.46 20.81 7.08L20.81 7.08L20.81 7.08Q20.40 6.69 19.68 6.69L19.68 6.69L19.68 6.69Q18.17 6.69 17.81 8.50L17.81 8.50ZM28.29 10.54L28.29 9.44L28.29 9.44Q27.50 9.74 26.94 10.04L26.94 10.04L26.94 10.04Q26.39 10.33 26.05 10.63L26.05 10.63L26.05 10.63Q25.72 10.92 25.57 11.21L25.57 11.21L25.57 11.21Q25.42 11.51 25.42 11.82L25.42 11.82L25.42 11.82Q25.42 12.28 25.73 12.57L25.73 12.57L25.73 12.57Q26.04 12.87 26.54 12.87L26.54 12.87L26.54 12.87Q26.91 12.87 27.22 12.68L27.22 12.68L27.22 12.68Q27.54 12.50 27.78 12.19L27.78 12.19L27.78 12.19Q28.01 11.87 28.15 11.45L28.15 11.45L28.15 11.45Q28.29 11.02 28.29 10.54L28.29 10.54ZM26.28 9.72L28.29 8.83L28.29 8.26L28.29 8.26Q28.29 6.55 26.84 6.55L26.84 6.55L26.84 6.55Q26.60 6.55 26.43 6.59L26.43 6.59L26.43 6.59Q26.26 6.64 26.15 6.73L26.15 6.73L26.15 6.73Q26.04 6.83 25.95 7.01L25.95 7.01L25.95 7.01Q25.86 7.20 25.77 7.46L25.77 7.46L25.77 7.46Q25.62 7.87 25.47 8.00L25.47 8.00L25.47 8.00Q25.33 8.13 25.05 8.13L25.05 8.13L25.05 8.13Q24.35 8.13 24.35 7.43L24.35 7.43L24.35 7.43Q24.35 6.76 25.06 6.39L25.06 6.39L25.06 6.39Q25.77 6.02 27.09 6.02L27.09 6.02L27.09 6.02Q28.49 6.02 29.08 6.52L29.08 6.52L29.08 6.52Q29.67 7.01 29.67 8.20L29.67 8.20L29.67 11.34L29.67 11.34Q29.67 12.94 30.30 12.94L30.30 12.94L30.30 12.94Q30.49 12.94 30.67 12.89L30.67 12.89L30.67 12.89Q30.86 12.84 30.98 12.63L30.98 12.63L31.18 12.96L31.18 12.96Q31.01 13.29 30.56 13.50L30.56 13.50L30.56 13.50Q30.11 13.72 29.62 13.72L29.62 13.72L29.62 13.72Q29.01 13.72 28.71 13.33L28.71 13.33L28.71 13.33Q28.41 12.94 28.41 12.22L28.41 12.22L28.34 12.22L28.34 12.22Q27.97 12.91 27.33 13.31L27.33 13.31L27.33 13.31Q26.68 13.71 25.90 13.71L25.90 13.71L25.90 13.71Q25.02 13.71 24.51 13.26L24.51 13.26L24.51 13.26Q24.01 12.81 24.01 12.05L24.01 12.05L24.01 12.05Q24.01 11.72 24.13 11.41L24.13 11.41L24.13 11.41Q24.25 11.10 24.51 10.82L24.51 10.82L24.51 10.82Q24.78 10.54 25.21 10.27L25.21 10.27L25.21 10.27Q25.65 10.00 26.28 9.72L26.28 9.72ZM32.56 7.04L31.72 7.04L31.72 6.52L31.72 6.52Q32.47 6.09 32.89 5.66L32.89 5.66L32.89 5.66Q33.31 5.22 33.53 4.62L33.53 4.62L33.94 4.62L33.94 6.38L35.81 6.38L35.81 7.04L33.94 7.04L33.94 11.30L33.94 11.30Q33.94 11.79 33.98 12.12L33.98 12.12L33.98 12.12Q34.03 12.46 34.15 12.66L34.15 12.66L34.15 12.66Q34.26 12.87 34.44 12.95L34.44 12.95L34.44 12.95Q34.62 13.03 34.90 13.03L34.90 13.03L34.90 13.03Q35.25 13.03 35.50 12.89L35.50 12.89L35.50 12.89Q35.74 12.74 35.98 12.39L35.98 12.39L36.33 12.66L36.33 12.66Q36.13 13.17 35.65 13.45L35.65 13.45L35.65 13.45Q35.17 13.72 34.45 13.72L34.45 13.72L34.45 13.72Q33.53 13.72 33.05 13.28L33.05 13.28L33.05 13.28Q32.56 12.84 32.56 12.01L32.56 12.01L32.56 7.04ZM39.37 9.56L39.37 11.35L39.37 11.35Q39.37 11.93 39.40 12.26L39.40 12.26L39.40 12.26Q39.42 12.60 39.54 12.78L39.54 12.78L39.54 12.78Q39.66 12.95 39.89 13.01L39.89 13.01L39.89 13.01Q40.11 13.06 40.52 13.09L40.52 13.09L40.52 13.58L36.79 13.58L36.79 13.09L36.79 13.09Q37.20 13.06 37.44 13.01L37.44 13.01L37.44 13.01Q37.67 12.95 37.80 12.78L37.80 12.78L37.80 12.78Q37.93 12.61 37.96 12.30L37.96 12.30L37.96 12.30Q38.00 11.98 38.00 11.45L38.00 11.45L38.00 5.59L38.00 5.59Q38.00 4.76 37.98 4.27L37.98 4.27L37.98 4.27Q37.95 3.78 37.90 3.53L37.90 3.53L37.90 3.53Q37.87 3.36 37.81 3.25L37.81 3.25L37.81 3.25Q37.74 3.15 37.62 3.09L37.62 3.09L37.62 3.09Q37.49 3.02 37.28 3.00L37.28 3.00L37.28 3.00Q37.07 2.97 36.76 2.97L36.76 2.97L36.76 2.49L39.34 1.96L39.34 7.29L39.40 7.29L39.40 7.29Q39.61 7.01 39.92 6.78L39.92 6.78L39.92 6.78Q40.24 6.55 40.60 6.38L40.60 6.38L40.60 6.38Q40.96 6.22 41.36 6.12L41.36 6.12L41.36 6.12Q41.76 6.02 42.14 6.02L42.14 6.02L42.14 6.02Q42.78 6.02 43.32 6.24L43.32 6.24L43.32 6.24Q43.86 6.47 44.16 6.85L44.16 6.85L44.16 6.85Q44.39 7.17 44.51 7.69L44.51 7.69L44.51 7.69Q44.62 8.22 44.62 9.11L44.62 9.11L44.62 11.35L44.62 11.35Q44.62 11.93 44.65 12.26L44.65 12.26L44.65 12.26Q44.67 12.59 44.79 12.77L44.79 12.77L44.79 12.77Q44.91 12.95 45.14 13.01L45.14 13.01L45.14 13.01Q45.36 13.06 45.77 13.09L45.77 13.09L45.77 13.58L42.06 13.58L42.06 13.09L42.06 13.09Q42.45 13.08 42.69 13.01L42.69 13.01L42.69 13.01Q42.92 12.95 43.04 12.78L43.04 12.78L43.04 12.78Q43.16 12.61 43.20 12.30L43.20 12.30L43.20 12.30Q43.23 11.98 43.23 11.45L43.23 11.45L43.23 9.69L43.23 9.69Q43.23 8.12 42.87 7.46L42.87 7.46L42.87 7.46Q42.50 6.79 41.65 6.79L41.65 6.79L41.65 6.79Q40.99 6.79 40.45 7.13L40.45 7.13L40.45 7.13Q39.91 7.46 39.61 8.05L39.61 8.05L39.61 8.05Q39.54 8.20 39.49 8.34L39.49 8.34L39.49 8.34Q39.44 8.47 39.41 8.64L39.41 8.64L39.41 8.64Q39.38 8.81 39.38 9.02L39.38 9.02L39.38 9.02Q39.37 9.24 39.37 9.56L39.37 9.56ZM52.96 11.89L53.40 12.28L53.40 12.28Q52.21 13.72 50.44 13.72L50.44 13.72L50.44 13.72Q49.62 13.72 48.94 13.45L48.94 13.45L48.94 13.45Q48.27 13.17 47.79 12.68L47.79 12.68L47.79 12.68Q47.31 12.18 47.04 11.49L47.04 11.49L47.04 11.49Q46.77 10.79 46.77 9.95L46.77 9.95L46.77 9.95Q46.77 9.10 47.05 8.37L47.05 8.37L47.05 8.37Q47.33 7.64 47.84 7.13L47.84 7.13L47.84 7.13Q48.36 6.61 49.06 6.31L49.06 6.31L49.06 6.31Q49.77 6.02 50.61 6.02L50.61 6.02L50.61 6.02Q51.97 6.02 52.71 6.75L52.71 6.75L52.71 6.75Q53.45 7.49 53.45 8.86L53.45 8.86L53.45 8.86Q53.45 9.06 53.38 9.10L53.38 9.10L53.38 9.10Q53.30 9.14 53.02 9.14L53.02 9.14L48.41 9.14L48.41 9.14Q48.38 9.25 48.37 9.41L48.37 9.41L48.37 9.41Q48.36 9.58 48.36 9.77L48.36 9.77L48.36 9.77Q48.36 10.50 48.53 11.10L48.53 11.10L48.53 11.10Q48.71 11.69 49.04 12.11L49.04 12.11L49.04 12.11Q49.36 12.53 49.82 12.76L49.82 12.76L49.82 12.76Q50.27 12.99 50.83 12.99L50.83 12.99L50.83 12.99Q51.42 12.99 51.93 12.73L51.93 12.73L51.93 12.73Q52.43 12.47 52.96 11.89L52.96 11.89ZM48.51 8.50L51.09 8.50L51.09 8.50Q51.37 8.50 51.53 8.48L51.53 8.48L51.53 8.48Q51.70 8.47 51.79 8.43L51.79 8.43L51.79 8.43Q51.87 8.39 51.90 8.31L51.90 8.31L51.90 8.31Q51.93 8.23 51.93 8.11L51.93 8.11L51.93 8.11Q51.93 7.46 51.51 7.08L51.51 7.08L51.51 7.08Q51.10 6.69 50.39 6.69L50.39 6.69L50.39 6.69Q48.87 6.69 48.51 8.50L48.51 8.50ZM57.22 10.88L57.22 11.35L57.22 11.35Q57.22 11.93 57.25 12.26L57.25 12.26L57.25 12.26Q57.27 12.60 57.39 12.78L57.39 12.78L57.39 12.78Q57.51 12.95 57.74 13.01L57.74 13.01L57.74 13.01Q57.96 13.06 58.37 13.09L58.37 13.09L58.37 13.58L54.64 13.58L54.64 13.09L54.64 13.09Q55.05 13.08 55.29 13.01L55.29 13.01L55.29 13.01Q55.52 12.95 55.65 12.78L55.65 12.78L55.65 12.78Q55.78 12.61 55.81 12.30L55.81 12.30L55.81 12.30Q55.85 11.98 55.85 11.45L55.85 11.45L55.85 9.81L55.85 9.81Q55.85 8.86 55.83 8.33L55.83 8.33L55.83 8.33Q55.80 7.80 55.69 7.55L55.69 7.55L55.69 7.55Q55.57 7.29 55.31 7.25L55.31 7.25L55.31 7.25Q55.06 7.20 54.61 7.20L54.61 7.20L54.61 6.71L57.06 6.17L57.26 7.91L57.32 7.91L57.32 7.91Q57.50 7.49 57.77 7.14L57.77 7.14L57.77 7.14Q58.04 6.79 58.37 6.54L58.37 6.54L58.37 6.54Q58.69 6.30 59.04 6.16L59.04 6.16L59.04 6.16Q59.39 6.02 59.75 6.02L59.75 6.02L59.75 6.02Q60.20 6.02 60.46 6.24L60.46 6.24L60.46 6.24Q60.72 6.45 60.72 6.82L60.72 6.82L60.72 6.82Q60.72 7.15 60.51 7.34L60.51 7.34L60.51 7.34Q60.30 7.53 59.91 7.53L59.91 7.53L59.91 7.53Q59.68 7.53 59.53 7.48L59.53 7.48L59.53 7.48Q59.37 7.42 59.26 7.36L59.26 7.36L59.26 7.36Q59.14 7.29 59.03 7.24L59.03 7.24L59.03 7.24Q58.93 7.18 58.80 7.18L58.80 7.18L58.80 7.18Q58.42 7.18 58.04 7.67L58.04 7.67L58.04 7.67Q57.67 8.15 57.46 8.89L57.46 8.89L57.46 8.89Q57.34 9.30 57.28 9.81L57.28 9.81L57.28 9.81Q57.22 10.32 57.22 10.88L57.22 10.88ZM63.99 9.59L63.99 11.35L63.99 11.35Q63.99 11.89 64.05 12.22L64.05 12.22L64.05 12.22Q64.11 12.56 64.27 12.74L64.27 12.74L64.27 12.74Q64.44 12.92 64.74 12.98L64.74 12.98L64.74 12.98Q65.03 13.05 65.52 13.05L65.52 13.05L65.52 13.58L60.98 13.58L60.98 13.05L60.98 13.05Q61.47 13.05 61.77 12.98L61.77 12.98L61.77 12.98Q62.08 12.92 62.24 12.75L62.24 12.75L62.24 12.75Q62.41 12.57 62.47 12.26L62.47 12.26L62.47 12.26Q62.52 11.94 62.52 11.45L62.52 11.45L62.52 4.93L62.52 4.93Q62.52 4.40 62.46 4.08L62.46 4.08L62.46 4.08Q62.40 3.77 62.24 3.60L62.24 3.60L62.24 3.60Q62.08 3.43 61.81 3.38L61.81 3.38L61.81 3.38Q61.54 3.33 61.12 3.33L61.12 3.33L61.12 2.80L65.38 2.80L65.38 3.33L65.38 3.33Q64.96 3.33 64.69 3.39L64.69 3.39L64.69 3.39Q64.43 3.44 64.27 3.63L64.27 3.63L64.27 3.63Q64.11 3.81 64.05 4.14L64.05 4.14L64.05 4.14Q63.99 4.47 63.99 5.03L63.99 5.03L63.99 8.48L67.49 4.27L67.49 4.27Q67.77 3.92 67.77 3.72L67.77 3.72L67.77 3.72Q67.77 3.33 66.98 3.33L66.98 3.33L66.98 2.80L70.35 2.80L70.35 3.32L70.35 3.32Q70.07 3.32 69.86 3.35L69.86 3.35L69.86 3.35Q69.65 3.39 69.45 3.50L69.45 3.50L69.45 3.50Q69.24 3.61 69.02 3.82L69.02 3.82L69.02 3.82Q68.80 4.03 68.50 4.37L68.50 4.37L65.87 7.41L69.96 12.32L69.96 12.32Q70.31 12.73 70.62 12.89L70.62 12.89L70.62 12.89Q70.92 13.05 71.44 13.05L71.44 13.05L71.44 13.58L67.14 13.58L67.14 13.05L67.14 13.05Q67.69 13.05 67.93 12.96L67.93 12.96L67.93 12.96Q68.17 12.87 68.17 12.67L68.17 12.67L68.17 12.67Q68.17 12.56 68.05 12.35L68.05 12.35L68.05 12.35Q67.94 12.14 67.69 11.83L67.69 11.83L64.96 8.47L63.99 9.59ZM76.15 10.54L76.15 9.44L76.15 9.44Q75.35 9.74 74.80 10.04L74.80 10.04L74.80 10.04Q74.24 10.33 73.91 10.63L73.91 10.63L73.91 10.63Q73.57 10.92 73.42 11.21L73.42 11.21L73.42 11.21Q73.28 11.51 73.28 11.82L73.28 11.82L73.28 11.82Q73.28 12.28 73.58 12.57L73.58 12.57L73.58 12.57Q73.89 12.87 74.40 12.87L74.40 12.87L74.40 12.87Q74.76 12.87 75.08 12.68L75.08 12.68L75.08 12.68Q75.39 12.50 75.63 12.19L75.63 12.19L75.63 12.19Q75.87 11.87 76.01 11.45L76.01 11.45L76.01 11.45Q76.15 11.02 76.15 10.54L76.15 10.54ZM74.13 9.72L76.15 8.83L76.15 8.26L76.15 8.26Q76.15 6.55 74.69 6.55L74.69 6.55L74.69 6.55Q74.45 6.55 74.28 6.59L74.28 6.59L74.28 6.59Q74.12 6.64 74.00 6.73L74.00 6.73L74.00 6.73Q73.89 6.83 73.80 7.01L73.80 7.01L73.80 7.01Q73.71 7.20 73.63 7.46L73.63 7.46L73.63 7.46Q73.47 7.87 73.33 8.00L73.33 8.00L73.33 8.00Q73.18 8.13 72.90 8.13L72.90 8.13L72.90 8.13Q72.20 8.13 72.20 7.43L72.20 7.43L72.20 7.43Q72.20 6.76 72.91 6.39L72.91 6.39L72.91 6.39Q73.63 6.02 74.94 6.02L74.94 6.02L74.94 6.02Q76.34 6.02 76.93 6.52L76.93 6.52L76.93 6.52Q77.52 7.01 77.52 8.20L77.52 8.20L77.52 11.34L77.52 11.34Q77.52 12.94 78.15 12.94L78.15 12.94L78.15 12.94Q78.34 12.94 78.53 12.89L78.53 12.89L78.53 12.89Q78.71 12.84 78.83 12.63L78.83 12.63L79.03 12.96L79.03 12.96Q78.86 13.29 78.41 13.50L78.41 13.50L78.41 13.50Q77.97 13.72 77.48 13.72L77.48 13.72L77.48 13.72Q76.86 13.72 76.56 13.33L76.56 13.33L76.56 13.33Q76.26 12.94 76.26 12.22L76.26 12.22L76.19 12.22L76.19 12.22Q75.82 12.91 75.18 13.31L75.18 13.31L75.18 13.31Q74.54 13.71 73.75 13.71L73.75 13.71L73.75 13.71Q72.87 13.71 72.37 13.26L72.37 13.26L72.37 13.26Q71.86 12.81 71.86 12.05L71.86 12.05L71.86 12.05Q71.86 11.72 71.98 11.41L71.98 11.41L71.98 11.41Q72.10 11.10 72.37 10.82L72.37 10.82L72.37 10.82Q72.63 10.54 73.07 10.27L73.07 10.27L73.07 10.27Q73.50 10.00 74.13 9.72L74.13 9.72ZM80.50 13.09L80.22 13.58L79.91 13.58L79.91 11.17L80.26 11.17L80.26 11.17Q80.81 13.15 82.25 13.15L82.25 13.15L82.25 13.15Q82.81 13.15 83.14 12.87L83.14 12.87L83.14 12.87Q83.47 12.60 83.47 12.04L83.47 12.04L83.47 12.04Q83.47 11.83 83.41 11.68L83.41 11.68L83.41 11.68Q83.34 11.54 83.17 11.38L83.17 11.38L83.17 11.38Q82.99 11.21 82.68 11.00L82.68 11.00L82.68 11.00Q82.36 10.79 81.84 10.47L81.84 10.47L81.84 10.47Q81.37 10.18 81.02 9.93L81.02 9.93L81.02 9.93Q80.67 9.67 80.43 9.41L80.43 9.41L80.43 9.41Q80.19 9.16 80.07 8.86L80.07 8.86L80.07 8.86Q79.95 8.57 79.95 8.18L79.95 8.18L79.95 8.18Q79.95 7.70 80.12 7.30L80.12 7.30L80.12 7.30Q80.28 6.90 80.56 6.62L80.56 6.62L80.56 6.62Q80.84 6.34 81.21 6.18L81.21 6.18L81.21 6.18Q81.59 6.02 82.04 6.02L82.04 6.02L82.04 6.02Q82.42 6.02 82.82 6.14L82.82 6.14L82.82 6.14Q83.23 6.26 83.54 6.45L83.54 6.45L83.82 6.16L84.08 6.16L84.08 8.18L83.72 8.18L83.72 8.18Q83.41 7.32 83.05 6.96L83.05 6.96L83.05 6.96Q82.68 6.59 82.15 6.59L82.15 6.59L82.15 6.59Q81.68 6.59 81.39 6.85L81.39 6.85L81.39 6.85Q81.10 7.10 81.10 7.55L81.10 7.55L81.10 7.55Q81.10 7.78 81.18 7.96L81.18 7.96L81.18 7.96Q81.26 8.13 81.42 8.30L81.42 8.30L81.42 8.30Q81.59 8.47 81.85 8.64L81.85 8.64L81.85 8.64Q82.11 8.82 82.47 9.04L82.47 9.04L82.47 9.04Q83.08 9.42 83.50 9.72L83.50 9.72L83.50 9.72Q83.93 10.01 84.20 10.30L84.20 10.30L84.20 10.30Q84.46 10.58 84.59 10.89L84.59 10.89L84.59 10.89Q84.71 11.20 84.71 11.59L84.71 11.59L84.71 11.59Q84.71 12.59 84.07 13.15L84.07 13.15L84.07 13.15Q83.43 13.72 82.38 13.72L82.38 13.72L82.38 13.72Q81.28 13.72 80.50 13.09L80.50 13.09ZM86.77 7.04L85.93 7.04L85.93 6.52L85.93 6.52Q86.67 6.09 87.09 5.66L87.09 5.66L87.09 5.66Q87.51 5.22 87.74 4.62L87.74 4.62L88.14 4.62L88.14 6.38L90.02 6.38L90.02 7.04L88.14 7.04L88.14 11.30L88.14 11.30Q88.14 11.79 88.19 12.12L88.19 12.12L88.19 12.12Q88.24 12.46 88.35 12.66L88.35 12.66L88.35 12.66Q88.47 12.87 88.65 12.95L88.65 12.95L88.65 12.95Q88.83 13.03 89.11 13.03L89.11 13.03L89.11 13.03Q89.46 13.03 89.70 12.89L89.70 12.89L89.70 12.89Q89.95 12.74 90.19 12.39L90.19 12.39L90.54 12.66L90.54 12.66Q90.34 13.17 89.86 13.45L89.86 13.45L89.86 13.45Q89.38 13.72 88.66 13.72L88.66 13.72L88.66 13.72Q87.74 13.72 87.25 13.28L87.25 13.28L87.25 13.28Q86.77 12.84 86.77 12.01L86.77 12.01L86.77 7.04Z"></path></g><!----><g data-v-d3f97b9e="" id="8b40afa9-b3ce-469e-a51c-1f2837ce8bc4" transform="matrix(1.8,0,0,1.8,-14.399100494384768,-10.800000000000004)" stroke="none" fill="white"><path d="M33.414 48.616c2.077 2.078 4.84 3.222 7.778 3.222s5.701-1.144 7.778-3.222c4.288-4.288 4.288-11.267 0-15.556a10.929 10.929 0 0 0-7.778-3.222c-2.938 0-5.7 1.145-7.778 3.222a10.925 10.925 0 0 0-3.222 7.777c0 2.939 1.144 5.702 3.222 7.779zm1.414-14.141a8.94 8.94 0 0 1 6.364-2.636c2.403 0 4.664.937 6.364 2.636 3.509 3.51 3.509 9.219 0 12.728-1.7 1.7-3.96 2.636-6.364 2.636s-4.664-.936-6.364-2.636-2.636-3.96-2.636-6.363c0-2.405.936-4.665 2.636-6.365z"></path><path d="M33.014 11.446a1 1 0 1 0-1.415 1.414l18.479 18.479c5.068 5.069 5.068 13.317 0 18.385s-13.316 5.068-18.385 0l-14.52-14.52a.999.999 0 1 0-1.414 1.414l14.52 14.52c2.924 2.924 6.766 4.387 10.606 4.387s7.683-1.463 10.606-4.387c5.849-5.849 5.849-15.364 0-21.213L33.014 11.446z"></path><path d="M23.515 35.889a.999.999 0 0 0 0 1.414l2.122 2.121a.997.997 0 0 0 1.414 0 .999.999 0 0 0 0-1.414l-2.122-2.121a.999.999 0 0 0-1.414 0zM20.686 34.061a.999.999 0 0 0 .707-1.707l-9.899-9.9a.999.999 0 1 0-1.414 1.414l9.899 9.9a.997.997 0 0 0 .707.293zM27.757 33.061a.997.997 0 0 0 1.414 0 .999.999 0 0 0 0-1.414l-4.95-4.95a.999.999 0 1 0-1.414 1.414l4.95 4.95zM17.858 23.161a.997.997 0 0 0 1.414 0 .999.999 0 0 0 0-1.414l-8.009-8.009a.999.999 0 1 0-1.414 1.414l8.009 8.009zM34.121 30.525a.999.999 0 0 0 .707-1.707l-1.414-1.414A.999.999 0 1 0 32 28.818l1.414 1.414a.997.997 0 0 0 .707.293zM27.757 24.575a.997.997 0 0 0 1.414 0 .999.999 0 0 0 0-1.414l-4.243-4.243a.999.999 0 1 0-1.414 1.414l4.243 4.243zM19.979 16.797a.997.997 0 0 0 1.414 0 .999.999 0 0 0 0-1.414l-2.121-2.122a.999.999 0 1 0-1.414 1.414l2.121 2.122zM32 17.504a.999.999 0 1 0-1.414 1.414l8.485 8.485a.997.997 0 0 0 1.414 0 .999.999 0 0 0 0-1.414L32 17.504zM26.343 14.675a.997.997 0 0 0 1.414 0 .999.999 0 0 0 0-1.414l-2.829-2.828a.999.999 0 1 0-1.414 1.414l2.829 2.828z"></path><circle cx="9" cy="34" r="1"></circle><circle cx="9" cy="38.293" r="1"></circle><circle cx="29.878" cy="7" r="1"></circle><circle cx="43.313" cy="14.676" r="1"></circle><circle cx="49" cy="23.161" r="1"></circle><circle cx="25" cy="51" r="1"></circle><circle cx="20" cy="46" r="1"></circle><circle cx="28" cy="55" r="1"></circle><circle cx="56.999" cy="31" r="1"></circle><circle cx="13" cy="45" r="1"></circle><path d="M44.728 45.788a.997.997 0 0 0 1.414 0c1.323-1.322 2.053-3.08 2.053-4.949s-.729-3.627-2.053-4.95a.999.999 0 1 0-1.414 1.414 4.97 4.97 0 0 1 1.467 3.536c0 1.334-.521 2.59-1.467 3.535a.999.999 0 0 0 0 1.414z"></path></g><!----><g data-v-d3f97b9e="" id="c2845d97-240b-4a5f-afd6-35a065a011b4" fill="white" transform="matrix(1.3671268086711712,0,0,1.3671268086711712,103.76410416592086,57.32042952986805)"><path d="M5.43 5.68L5.03 5.68L5.03 5.68Q4.97 5.29 4.89 4.83L4.89 4.83L4.89 4.83Q4.82 4.37 4.74 3.93L4.74 3.93L4.74 3.93Q4.66 3.50 4.61 3.16L4.61 3.16L4.61 3.16Q4.56 2.81 4.56 2.65L4.56 2.65L4.56 2.65Q4.56 2.35 4.75 2.16L4.75 2.16L4.75 2.16Q4.94 1.96 5.22 1.96L5.22 1.96L5.22 1.96Q5.50 1.96 5.69 2.16L5.69 2.16L5.69 2.16Q5.88 2.35 5.88 2.66L5.88 2.66L5.88 2.66Q5.88 2.83 5.83 3.18L5.83 3.18L5.83 3.18Q5.78 3.53 5.71 3.95L5.71 3.95L5.71 3.95Q5.64 4.37 5.56 4.83L5.56 4.83L5.56 4.83Q5.49 5.29 5.43 5.68L5.43 5.68ZM7.56 5.68L7.15 5.68L7.15 5.68Q7.10 5.29 7.02 4.83L7.02 4.83L7.02 4.83Q6.94 4.37 6.87 3.93L6.87 3.93L6.87 3.93Q6.79 3.50 6.74 3.16L6.74 3.16L6.74 3.16Q6.69 2.81 6.69 2.65L6.69 2.65L6.69 2.65Q6.69 2.35 6.88 2.16L6.88 2.16L6.88 2.16Q7.07 1.96 7.35 1.96L7.35 1.96L7.35 1.96Q7.63 1.96 7.82 2.16L7.82 2.16L7.82 2.16Q8.01 2.35 8.01 2.66L8.01 2.66L8.01 2.66Q8.01 2.83 7.96 3.18L7.96 3.18L7.96 3.18Q7.91 3.53 7.84 3.95L7.84 3.95L7.84 3.95Q7.77 4.37 7.69 4.83L7.69 4.83L7.69 4.83Q7.62 5.29 7.56 5.68L7.56 5.68ZM18.66 5.18L20.54 11.47L22.72 5.39L22.72 5.39Q22.92 4.84 23.00 4.52L23.00 4.52L23.00 4.52Q23.09 4.20 23.09 3.96L23.09 3.96L23.09 3.96Q23.09 3.60 22.86 3.46L22.86 3.46L22.86 3.46Q22.62 3.33 22.04 3.33L22.04 3.33L22.04 2.80L25.44 2.80L25.44 3.33L25.44 3.33Q24.79 3.33 24.46 3.60L24.46 3.60L24.46 3.60Q24.14 3.86 23.91 4.47L23.91 4.47L20.40 13.72L19.91 13.72L17.22 5.75L14.24 13.72L13.75 13.72L10.84 5.68L10.84 5.68Q10.58 5.01 10.38 4.56L10.38 4.56L10.38 4.56Q10.18 4.10 9.95 3.84L9.95 3.84L9.95 3.84Q9.72 3.57 9.42 3.46L9.42 3.46L9.42 3.46Q9.13 3.35 8.71 3.35L8.71 3.35L8.71 2.80L13.27 2.80L13.27 3.35L13.27 3.35Q12.56 3.35 12.27 3.47L12.27 3.47L12.27 3.47Q11.98 3.60 11.98 3.96L11.98 3.96L11.98 3.96Q11.98 4.14 12.04 4.38L12.04 4.38L12.04 4.38Q12.10 4.62 12.21 4.94L12.21 4.94L14.34 11.42L16.06 6.58L16.06 6.58Q16.25 6.03 16.44 5.56L16.44 5.56L16.44 5.56Q16.63 5.10 16.74 4.72L16.74 4.72L16.74 4.72Q16.55 4.31 16.39 4.05L16.39 4.05L16.39 4.05Q16.23 3.78 16.07 3.63L16.07 3.63L16.07 3.63Q15.90 3.47 15.73 3.41L15.73 3.41L15.73 3.41Q15.55 3.35 15.36 3.35L15.36 3.35L15.36 2.80L19.64 2.80L19.64 3.35L19.64 3.35Q19.24 3.35 18.98 3.37L18.98 3.37L18.98 3.37Q18.73 3.40 18.60 3.46L18.60 3.46L18.60 3.46Q18.47 3.53 18.42 3.64L18.42 3.64L18.42 3.64Q18.37 3.75 18.37 3.91L18.37 3.91L18.37 3.91Q18.37 4.12 18.45 4.42L18.45 4.42L18.45 4.42Q18.52 4.72 18.66 5.18L18.66 5.18ZM28.97 3.64L28.97 7.66L28.97 7.66Q29.72 7.66 30.23 7.57L30.23 7.57L30.23 7.57Q30.74 7.48 31.05 7.28L31.05 7.28L31.05 7.28Q31.35 7.08 31.48 6.78L31.48 6.78L31.48 6.78Q31.61 6.47 31.61 6.05L31.61 6.05L32.10 6.05L32.10 9.87L31.61 9.87L31.61 9.87Q31.61 9.45 31.49 9.14L31.49 9.14L31.49 9.14Q31.37 8.83 31.07 8.63L31.07 8.63L31.07 8.63Q30.77 8.43 30.26 8.32L30.26 8.32L30.26 8.32Q29.75 8.22 28.97 8.22L28.97 8.22L28.97 11.38L28.97 11.38Q28.97 11.84 29.08 12.14L29.08 12.14L29.08 12.14Q29.19 12.45 29.46 12.63L29.46 12.63L29.46 12.63Q29.74 12.82 30.18 12.90L30.18 12.90L30.18 12.90Q30.63 12.98 31.29 12.98L31.29 12.98L31.29 12.98Q32.03 12.98 32.55 12.87L32.55 12.87L32.55 12.87Q33.07 12.77 33.42 12.52L33.42 12.52L33.42 12.52Q33.77 12.26 33.98 11.85L33.98 11.85L33.98 11.85Q34.19 11.44 34.33 10.82L34.33 10.82L34.86 10.82L34.65 13.58L25.96 13.58L25.96 13.05L25.96 13.05Q26.45 13.03 26.75 12.96L26.75 12.96L26.75 12.96Q27.05 12.89 27.22 12.73L27.22 12.73L27.22 12.73Q27.38 12.56 27.44 12.25L27.44 12.25L27.44 12.25Q27.50 11.94 27.50 11.45L27.50 11.45L27.50 4.93L27.50 4.93Q27.50 4.44 27.45 4.14L27.45 4.14L27.45 4.14Q27.40 3.84 27.25 3.66L27.25 3.66L27.25 3.66Q27.10 3.49 26.82 3.42L26.82 3.42L26.82 3.42Q26.54 3.36 26.10 3.33L26.10 3.33L26.10 2.80L34.19 2.80L34.31 5.26L33.82 5.26L33.82 5.26Q33.74 4.70 33.55 4.35L33.55 4.35L33.55 4.35Q33.36 3.99 33.03 3.78L33.03 3.78L33.03 3.78Q32.70 3.57 32.20 3.49L32.20 3.49L32.20 3.49Q31.70 3.40 30.98 3.40L30.98 3.40L29.20 3.40L29.20 3.40Q28.97 3.40 28.97 3.64L28.97 3.64ZM42.90 11.19L42.32 9.67L38.58 9.67L38.58 9.67Q38.35 10.25 38.18 10.69L38.18 10.69L38.18 10.69Q38.01 11.13 37.91 11.45L37.91 11.45L37.91 11.45Q37.80 11.77 37.76 12.00L37.76 12.00L37.76 12.00Q37.72 12.22 37.72 12.36L37.72 12.36L37.72 12.36Q37.72 12.75 37.97 12.90L37.97 12.90L37.97 12.90Q38.22 13.05 38.81 13.05L38.81 13.05L38.81 13.58L35.41 13.58L35.41 13.05L35.41 13.05Q35.73 13.01 35.96 12.94L35.96 12.94L35.96 12.94Q36.19 12.87 36.37 12.74L36.37 12.74L36.37 12.74Q36.54 12.61 36.67 12.41L36.67 12.41L36.67 12.41Q36.81 12.21 36.93 11.91L36.93 11.91L40.57 2.80L41.17 2.80L44.35 10.70L44.35 10.70Q44.67 11.48 44.91 11.95L44.91 11.95L44.91 11.95Q45.15 12.42 45.37 12.66L45.37 12.66L45.37 12.66Q45.60 12.89 45.86 12.96L45.86 12.96L45.86 12.96Q46.12 13.03 46.48 13.03L46.48 13.03L46.48 13.58L41.92 13.58L41.92 13.03L41.92 13.03Q42.66 13.03 42.94 12.89L42.94 12.89L42.94 12.89Q43.22 12.75 43.22 12.43L43.22 12.43L43.22 12.43Q43.22 12.29 43.20 12.17L43.20 12.17L43.20 12.17Q43.19 12.05 43.16 11.91L43.16 11.91L43.16 11.91Q43.12 11.77 43.06 11.60L43.06 11.60L43.06 11.60Q42.99 11.42 42.90 11.19L42.90 11.19ZM40.50 4.84L38.86 8.97L42.06 8.97L40.50 4.84ZM56.14 2.80L56.28 5.47L55.71 5.47L55.71 5.47Q55.66 4.87 55.51 4.47L55.51 4.47L55.51 4.47Q55.36 4.06 55.07 3.83L55.07 3.83L55.07 3.83Q54.78 3.60 54.35 3.50L54.35 3.50L54.35 3.50Q53.91 3.40 53.31 3.40L53.31 3.40L53.31 3.40Q52.79 3.40 52.48 3.42L52.48 3.42L52.48 3.42Q52.16 3.44 52.00 3.50L52.00 3.50L52.00 3.50Q51.83 3.56 51.78 3.63L51.78 3.63L51.78 3.63Q51.73 3.71 51.73 3.84L51.73 3.84L51.73 11.33L51.73 11.33Q51.73 11.77 51.79 12.10L51.79 12.10L51.79 12.10Q51.86 12.42 52.05 12.62L52.05 12.62L52.05 12.62Q52.23 12.82 52.59 12.93L52.59 12.93L52.59 12.93Q52.95 13.03 53.54 13.05L53.54 13.05L53.54 13.58L48.24 13.58L48.24 13.05L48.24 13.05Q48.83 13.03 49.20 12.93L49.20 12.93L49.20 12.93Q49.56 12.82 49.75 12.62L49.75 12.62L49.75 12.62Q49.94 12.42 50.00 12.10L50.00 12.10L50.00 12.10Q50.06 11.77 50.06 11.33L50.06 11.33L50.06 3.84L50.06 3.84Q50.06 3.71 50.02 3.63L50.02 3.63L50.02 3.63Q49.97 3.56 49.82 3.50L49.82 3.50L49.82 3.50Q49.67 3.44 49.41 3.42L49.41 3.42L49.41 3.42Q49.14 3.40 48.69 3.40L48.69 3.40L48.69 3.40Q48.15 3.40 47.68 3.44L47.68 3.44L47.68 3.44Q47.21 3.49 46.87 3.69L46.87 3.69L46.87 3.69Q46.52 3.89 46.31 4.31L46.31 4.31L46.31 4.31Q46.10 4.73 46.09 5.47L46.09 5.47L45.57 5.47L45.57 2.80L56.14 2.80ZM67.30 5.03L67.30 11.35L67.30 11.35Q67.30 11.89 67.35 12.21L67.35 12.21L67.35 12.21Q67.41 12.54 67.57 12.72L67.57 12.72L67.57 12.72Q67.73 12.89 68.03 12.96L68.03 12.96L68.03 12.96Q68.33 13.03 68.82 13.05L68.82 13.05L68.82 13.58L64.29 13.58L64.29 13.05L64.29 13.05Q64.78 13.03 65.08 12.96L65.08 12.96L65.08 12.96Q65.38 12.89 65.55 12.73L65.55 12.73L65.55 12.73Q65.72 12.56 65.77 12.25L65.77 12.25L65.77 12.25Q65.83 11.94 65.83 11.45L65.83 11.45L65.83 8.41L60.16 8.41L60.16 11.35L60.16 11.35Q60.16 11.89 60.21 12.21L60.21 12.21L60.21 12.21Q60.27 12.54 60.43 12.72L60.43 12.72L60.43 12.72Q60.59 12.89 60.89 12.96L60.89 12.96L60.89 12.96Q61.19 13.03 61.68 13.05L61.68 13.05L61.68 13.58L57.15 13.58L57.15 13.05L57.15 13.05Q57.64 13.03 57.94 12.96L57.94 12.96L57.94 12.96Q58.24 12.89 58.41 12.73L58.41 12.73L58.41 12.73Q58.58 12.56 58.63 12.25L58.63 12.25L58.63 12.25Q58.69 11.94 58.69 11.45L58.69 11.45L58.69 4.93L58.69 4.93Q58.69 4.44 58.64 4.14L58.64 4.14L58.64 4.14Q58.59 3.84 58.44 3.66L58.44 3.66L58.44 3.66Q58.30 3.49 58.02 3.42L58.02 3.42L58.02 3.42Q57.74 3.36 57.29 3.33L57.29 3.33L57.29 2.80L61.54 2.80L61.54 3.33L61.54 3.33Q61.10 3.35 60.82 3.42L60.82 3.42L60.82 3.42Q60.55 3.49 60.40 3.67L60.40 3.67L60.40 3.67Q60.26 3.85 60.21 4.17L60.21 4.17L60.21 4.17Q60.16 4.49 60.16 5.03L60.16 5.03L60.16 7.71L65.83 7.71L65.83 4.93L65.83 4.93Q65.83 4.44 65.78 4.14L65.78 4.14L65.78 4.14Q65.73 3.84 65.58 3.66L65.58 3.66L65.58 3.66Q65.44 3.49 65.16 3.42L65.16 3.42L65.16 3.42Q64.88 3.36 64.43 3.33L64.43 3.33L64.43 2.80L68.68 2.80L68.68 3.33L68.68 3.33Q68.24 3.35 67.96 3.42L67.96 3.42L67.96 3.42Q67.69 3.49 67.54 3.67L67.54 3.67L67.54 3.67Q67.40 3.85 67.35 4.17L67.35 4.17L67.35 4.17Q67.30 4.49 67.30 5.03L67.30 5.03ZM73.11 3.64L73.11 7.66L73.11 7.66Q73.86 7.66 74.38 7.57L74.38 7.57L74.38 7.57Q74.89 7.48 75.19 7.28L75.19 7.28L75.19 7.28Q75.49 7.08 75.62 6.78L75.62 6.78L75.62 6.78Q75.75 6.47 75.75 6.05L75.75 6.05L76.24 6.05L76.24 9.87L75.75 9.87L75.75 9.87Q75.75 9.45 75.64 9.14L75.64 9.14L75.64 9.14Q75.52 8.83 75.22 8.63L75.22 8.63L75.22 8.63Q74.91 8.43 74.40 8.32L74.40 8.32L74.40 8.32Q73.89 8.22 73.11 8.22L73.11 8.22L73.11 11.38L73.11 11.38Q73.11 11.84 73.22 12.14L73.22 12.14L73.22 12.14Q73.33 12.45 73.61 12.63L73.61 12.63L73.61 12.63Q73.88 12.82 74.33 12.90L74.33 12.90L74.33 12.90Q74.77 12.98 75.43 12.98L75.43 12.98L75.43 12.98Q76.17 12.98 76.69 12.87L76.69 12.87L76.69 12.87Q77.21 12.77 77.56 12.52L77.56 12.52L77.56 12.52Q77.91 12.26 78.12 11.85L78.12 11.85L78.12 11.85Q78.33 11.44 78.47 10.82L78.47 10.82L79.00 10.82L78.79 13.58L70.10 13.58L70.10 13.05L70.10 13.05Q70.59 13.03 70.89 12.96L70.89 12.96L70.89 12.96Q71.19 12.89 71.36 12.73L71.36 12.73L71.36 12.73Q71.53 12.56 71.58 12.25L71.58 12.25L71.58 12.25Q71.64 11.94 71.64 11.45L71.64 11.45L71.64 4.93L71.64 4.93Q71.64 4.44 71.59 4.14L71.59 4.14L71.59 4.14Q71.54 3.84 71.39 3.66L71.39 3.66L71.39 3.66Q71.25 3.49 70.97 3.42L70.97 3.42L70.97 3.42Q70.69 3.36 70.24 3.33L70.24 3.33L70.24 2.80L78.33 2.80L78.46 5.26L77.97 5.26L77.97 5.26Q77.88 4.70 77.69 4.35L77.69 4.35L77.69 4.35Q77.50 3.99 77.17 3.78L77.17 3.78L77.17 3.78Q76.85 3.57 76.34 3.49L76.34 3.49L76.34 3.49Q75.84 3.40 75.12 3.40L75.12 3.40L73.35 3.40L73.35 3.40Q73.11 3.40 73.11 3.64L73.11 3.64ZM88.84 5.50L88.84 5.50L88.84 5.50Q88.84 6.62 88.17 7.36L88.17 7.36L88.17 7.36Q87.50 8.11 86.03 8.36L86.03 8.36L89.12 12.08L89.12 12.08Q89.50 12.54 89.96 12.75L89.96 12.75L89.96 12.75Q90.41 12.95 91.04 13.05L91.04 13.05L91.04 13.58L88.34 13.58L84.91 9.18L84.91 9.18Q84.73 8.95 84.57 8.81L84.57 8.81L84.57 8.81Q84.41 8.67 84.23 8.59L84.23 8.59L84.23 8.59Q84.06 8.51 83.83 8.49L83.83 8.49L83.83 8.49Q83.59 8.47 83.27 8.47L83.27 8.47L83.27 11.38L83.27 11.38Q83.27 11.90 83.34 12.23L83.34 12.23L83.34 12.23Q83.40 12.56 83.60 12.74L83.60 12.74L83.60 12.74Q83.80 12.92 84.19 12.98L84.19 12.98L84.19 12.98Q84.57 13.05 85.20 13.05L85.20 13.05L85.20 13.58L80.26 13.58L80.26 13.05L80.26 13.05Q80.75 13.03 81.05 12.96L81.05 12.96L81.05 12.96Q81.35 12.89 81.52 12.73L81.52 12.73L81.52 12.73Q81.69 12.56 81.75 12.25L81.75 12.25L81.75 12.25Q81.80 11.94 81.80 11.45L81.80 11.45L81.80 4.93L81.80 4.93Q81.80 4.44 81.75 4.14L81.75 4.14L81.75 4.14Q81.70 3.84 81.56 3.66L81.56 3.66L81.56 3.66Q81.41 3.49 81.13 3.42L81.13 3.42L81.13 3.42Q80.85 3.36 80.40 3.33L80.40 3.33L80.40 2.80L84.80 2.80L84.80 2.80Q86.73 2.80 87.79 3.51L87.79 3.51L87.79 3.51Q88.84 4.23 88.84 5.50ZM83.27 3.70L83.27 7.77L84.27 7.77L84.27 7.77Q85.67 7.77 86.34 7.26L86.34 7.26L86.34 7.26Q87.02 6.75 87.02 5.57L87.02 5.57L87.02 5.57Q87.02 4.44 86.48 3.95L86.48 3.95L86.48 3.95Q85.95 3.46 84.80 3.46L84.80 3.46L83.51 3.46L83.51 3.46Q83.27 3.46 83.27 3.70L83.27 3.70ZM92.18 5.68L91.77 5.68L91.77 5.68Q91.71 5.29 91.64 4.83L91.64 4.83L91.64 4.83Q91.56 4.37 91.48 3.93L91.48 3.93L91.48 3.93Q91.41 3.50 91.36 3.16L91.36 3.16L91.36 3.16Q91.31 2.81 91.31 2.65L91.31 2.65L91.31 2.65Q91.31 2.35 91.50 2.16L91.50 2.16L91.50 2.16Q91.69 1.96 91.97 1.96L91.97 1.96L91.97 1.96Q92.25 1.96 92.44 2.16L92.44 2.16L92.44 2.16Q92.62 2.35 92.62 2.66L92.62 2.66L92.62 2.66Q92.62 2.83 92.58 3.18L92.58 3.18L92.58 3.18Q92.53 3.53 92.46 3.95L92.46 3.95L92.46 3.95Q92.39 4.37 92.31 4.83L92.31 4.83L92.31 4.83Q92.23 5.29 92.18 5.68L92.18 5.68ZM94.30 5.68L93.90 5.68L93.90 5.68Q93.84 5.29 93.77 4.83L93.77 4.83L93.77 4.83Q93.69 4.37 93.61 3.93L93.61 3.93L93.61 3.93Q93.53 3.50 93.48 3.16L93.48 3.16L93.48 3.16Q93.44 2.81 93.44 2.65L93.44 2.65L93.44 2.65Q93.44 2.35 93.63 2.16L93.63 2.16L93.63 2.16Q93.81 1.96 94.09 1.96L94.09 1.96L94.09 1.96Q94.37 1.96 94.56 2.16L94.56 2.16L94.56 2.16Q94.75 2.35 94.75 2.66L94.75 2.66L94.75 2.66Q94.75 2.83 94.70 3.18L94.70 3.18L94.70 3.18Q94.65 3.53 94.58 3.95L94.58 3.95L94.58 3.95Q94.51 4.37 94.44 4.83L94.44 4.83L94.44 4.83Q94.36 5.29 94.30 5.68L94.30 5.68ZM103.18 9.32L100.38 4.54L100.38 4.54Q100.17 4.17 99.99 3.94L99.99 3.94L99.99 3.94Q99.81 3.71 99.62 3.57L99.62 3.57L99.62 3.57Q99.43 3.43 99.22 3.38L99.22 3.38L99.22 3.38Q99.01 3.33 98.71 3.33L98.71 3.33L98.71 2.80L103.12 2.80L103.12 3.33L103.12 3.33Q102.42 3.33 102.14 3.44L102.14 3.44L102.14 3.44Q101.85 3.54 101.85 3.81L101.85 3.81L101.85 3.81Q101.85 4.10 102.17 4.65L102.17 4.65L104.34 8.36L104.40 8.36L105.98 5.70L105.98 5.70Q106.43 4.94 106.62 4.51L106.62 4.51L106.62 4.51Q106.81 4.07 106.81 3.81L106.81 3.81L106.81 3.81Q106.81 3.54 106.60 3.44L106.60 3.44L106.60 3.44Q106.40 3.33 105.90 3.33L105.90 3.33L105.90 2.80L109.10 2.80L109.10 3.33L109.10 3.33Q108.81 3.33 108.58 3.42L108.58 3.42L108.58 3.42Q108.35 3.50 108.09 3.75L108.09 3.75L108.09 3.75Q107.84 4.00 107.54 4.45L107.54 4.45L107.54 4.45Q107.24 4.90 106.81 5.63L106.81 5.63L104.65 9.27L104.65 10.93L104.65 10.93Q104.65 11.62 104.70 12.03L104.70 12.03L104.70 12.03Q104.75 12.45 104.91 12.67L104.91 12.67L104.91 12.67Q105.07 12.89 105.37 12.97L105.37 12.97L105.37 12.97Q105.67 13.05 106.18 13.05L106.18 13.05L106.18 13.58L101.64 13.58L101.64 13.05L101.64 13.05Q102.14 13.05 102.45 12.97L102.45 12.97L102.45 12.97Q102.75 12.89 102.91 12.68L102.91 12.68L102.91 12.68Q103.07 12.46 103.12 12.07L103.12 12.07L103.12 12.07Q103.18 11.68 103.18 11.03L103.18 11.03L103.18 9.32ZM115.11 2.66L115.11 2.66L115.11 2.66Q116.34 2.66 117.40 3.09L117.40 3.09L117.40 3.09Q118.47 3.53 119.25 4.28L119.25 4.28L119.25 4.28Q120.04 5.04 120.48 6.06L120.48 6.06L120.48 6.06Q120.93 7.08 120.93 8.27L120.93 8.27L120.93 8.27Q120.93 9.41 120.48 10.40L120.48 10.40L120.48 10.40Q120.02 11.40 119.24 12.13L119.24 12.13L119.24 12.13Q118.45 12.87 117.39 13.29L117.39 13.29L117.39 13.29Q116.33 13.72 115.11 13.72L115.11 13.72L115.11 13.72Q113.89 13.72 112.83 13.29L112.83 13.29L112.83 13.29Q111.76 12.87 110.98 12.13L110.98 12.13L110.98 12.13Q110.19 11.40 109.74 10.40L109.74 10.40L109.74 10.40Q109.28 9.41 109.28 8.27L109.28 8.27L109.28 8.27Q109.28 7.08 109.73 6.06L109.73 6.06L109.73 6.06Q110.18 5.04 110.96 4.28L110.96 4.28L110.96 4.28Q111.75 3.53 112.81 3.09L112.81 3.09L112.81 3.09Q113.88 2.66 115.11 2.66ZM115.11 12.95L115.11 12.95L115.11 12.95Q116.03 12.95 116.77 12.63L116.77 12.63L116.77 12.63Q117.50 12.31 118.03 11.70L118.03 11.70L118.03 11.70Q118.55 11.10 118.83 10.24L118.83 10.24L118.83 10.24Q119.11 9.38 119.11 8.32L119.11 8.32L119.11 8.32Q119.11 7.20 118.83 6.29L118.83 6.29L118.83 6.29Q118.55 5.39 118.03 4.75L118.03 4.75L118.03 4.75Q117.52 4.12 116.77 3.77L116.77 3.77L116.77 3.77Q116.03 3.43 115.11 3.43L115.11 3.43L115.11 3.43Q114.18 3.43 113.44 3.77L113.44 3.77L113.44 3.77Q112.70 4.12 112.18 4.75L112.18 4.75L112.18 4.75Q111.66 5.39 111.38 6.29L111.38 6.29L111.38 6.29Q111.10 7.20 111.10 8.32L111.10 8.32L111.10 8.32Q111.10 9.38 111.38 10.24L111.38 10.24L111.38 10.24Q111.66 11.10 112.18 11.70L112.18 11.70L112.18 11.70Q112.70 12.31 113.44 12.63L113.44 12.63L113.44 12.63Q114.18 12.95 115.11 12.95ZM131.67 6.41L131.67 9.24L131.67 9.24Q131.67 10.35 131.45 11.19L131.45 11.19L131.45 11.19Q131.24 12.03 130.75 12.59L130.75 12.59L130.75 12.59Q130.27 13.15 129.50 13.43L129.50 13.43L129.50 13.43Q128.73 13.72 127.64 13.72L127.64 13.72L127.64 13.72Q126.60 13.72 125.83 13.52L125.83 13.52L125.83 13.52Q125.06 13.31 124.54 12.85L124.54 12.85L124.54 12.85Q124.03 12.38 123.77 11.62L123.77 11.62L123.77 11.62Q123.52 10.86 123.52 9.76L123.52 9.76L123.52 6.06L123.52 6.06Q123.52 5.03 123.47 4.47L123.47 4.47L123.47 4.47Q123.42 3.91 123.19 3.64L123.19 3.64L123.19 3.64Q123.02 3.46 122.73 3.39L122.73 3.39L122.73 3.39Q122.44 3.33 121.97 3.33L121.97 3.33L121.97 2.80L126.74 2.80L126.74 3.33L126.74 3.33Q126.27 3.33 125.97 3.39L125.97 3.39L125.97 3.39Q125.68 3.44 125.51 3.67L125.51 3.67L125.51 3.67Q125.31 3.92 125.26 4.47L125.26 4.47L125.26 4.47Q125.20 5.03 125.20 6.06L125.20 6.06L125.20 9.87L125.20 9.87Q125.20 10.58 125.35 11.14L125.35 11.14L125.35 11.14Q125.50 11.69 125.83 12.07L125.83 12.07L125.83 12.07Q126.17 12.46 126.71 12.66L126.71 12.66L126.71 12.66Q127.25 12.85 128.03 12.85L128.03 12.85L128.03 12.85Q129.43 12.85 130.13 12.07L130.13 12.07L130.13 12.07Q130.83 11.30 130.83 9.79L130.83 9.79L130.83 6.41L130.83 6.41Q130.83 5.17 130.73 4.52L130.73 4.52L130.73 4.52Q130.63 3.88 130.37 3.61L130.37 3.61L130.37 3.61Q130.17 3.43 129.88 3.38L129.88 3.38L129.88 3.38Q129.58 3.33 129.15 3.33L129.15 3.33L129.15 2.80L133.21 2.80L133.21 3.33L133.21 3.33Q132.76 3.33 132.47 3.40L132.47 3.40L132.47 3.40Q132.19 3.47 132.02 3.71L132.02 3.71L132.02 3.71Q131.81 4.00 131.74 4.63L131.74 4.63L131.74 4.63Q131.67 5.25 131.67 6.41L131.67 6.41ZM138.66 13.43L138.45 10.29L138.96 10.29L138.96 10.29Q139.06 10.92 139.33 11.42L139.33 11.42L139.33 11.42Q139.61 11.93 140.02 12.28L140.02 12.28L140.02 12.28Q140.43 12.63 140.97 12.82L140.97 12.82L140.97 12.82Q141.51 13.01 142.14 13.01L142.14 13.01L142.14 13.01Q143.18 13.01 143.78 12.52L143.78 12.52L143.78 12.52Q144.38 12.03 144.38 11.19L144.38 11.19L144.38 11.19Q144.38 10.84 144.26 10.54L144.26 10.54L144.26 10.54Q144.14 10.25 143.86 9.97L143.86 9.97L143.86 9.97Q143.58 9.70 143.11 9.44L143.11 9.44L143.11 9.44Q142.65 9.17 141.93 8.86L141.93 8.86L141.93 8.86Q141.06 8.48 140.48 8.13L140.48 8.13L140.48 8.13Q139.89 7.78 139.54 7.41L139.54 7.41L139.54 7.41Q139.19 7.03 139.04 6.60L139.04 6.60L139.04 6.60Q138.89 6.17 138.89 5.63L138.89 5.63L138.89 5.63Q138.89 4.98 139.13 4.44L139.13 4.44L139.13 4.44Q139.36 3.89 139.78 3.49L139.78 3.49L139.78 3.49Q140.20 3.09 140.77 2.88L140.77 2.88L140.77 2.88Q141.34 2.66 142.03 2.66L142.03 2.66L142.03 2.66Q142.65 2.66 143.18 2.86L143.18 2.86L143.18 2.86Q143.71 3.05 144.26 3.49L144.26 3.49L144.62 2.86L144.94 2.86L145.10 5.64L144.58 5.64L144.58 5.64Q144.24 4.49 143.60 3.93L143.60 3.93L143.60 3.93Q142.97 3.37 142.07 3.37L142.07 3.37L142.07 3.37Q141.22 3.37 140.71 3.79L140.71 3.79L140.71 3.79Q140.21 4.21 140.21 4.93L140.21 4.93L140.21 4.93Q140.21 5.26 140.32 5.54L140.32 5.54L140.32 5.54Q140.43 5.81 140.69 6.05L140.69 6.05L140.69 6.05Q140.94 6.30 141.34 6.54L141.34 6.54L141.34 6.54Q141.75 6.79 142.35 7.06L142.35 7.06L142.35 7.06Q143.39 7.52 144.07 7.92L144.07 7.92L144.07 7.92Q144.76 8.32 145.17 8.71L145.17 8.71L145.17 8.71Q145.57 9.11 145.74 9.55L145.74 9.55L145.74 9.55Q145.91 10.00 145.91 10.54L145.91 10.54L145.91 10.54Q145.91 11.24 145.63 11.83L145.63 11.83L145.63 11.83Q145.35 12.42 144.84 12.84L144.84 12.84L144.84 12.84Q144.34 13.26 143.64 13.49L143.64 13.49L143.64 13.49Q142.94 13.72 142.10 13.72L142.10 13.72L142.10 13.72Q141.30 13.72 140.66 13.50L140.66 13.50L140.66 13.50Q140.03 13.27 139.37 12.74L139.37 12.74L138.98 13.43L138.66 13.43ZM157.44 5.03L157.44 11.35L157.44 11.35Q157.44 11.89 157.50 12.21L157.50 12.21L157.50 12.21Q157.56 12.54 157.72 12.72L157.72 12.72L157.72 12.72Q157.88 12.89 158.18 12.96L158.18 12.96L158.18 12.96Q158.48 13.03 158.97 13.05L158.97 13.05L158.97 13.58L154.43 13.58L154.43 13.05L154.43 13.05Q154.92 13.03 155.22 12.96L155.22 12.96L155.22 12.96Q155.53 12.89 155.69 12.73L155.69 12.73L155.69 12.73Q155.86 12.56 155.92 12.25L155.92 12.25L155.92 12.25Q155.97 11.94 155.97 11.45L155.97 11.45L155.97 8.41L150.30 8.41L150.30 11.35L150.30 11.35Q150.30 11.89 150.36 12.21L150.36 12.21L150.36 12.21Q150.42 12.54 150.58 12.72L150.58 12.72L150.58 12.72Q150.74 12.89 151.04 12.96L151.04 12.96L151.04 12.96Q151.34 13.03 151.83 13.05L151.83 13.05L151.83 13.58L147.29 13.58L147.29 13.05L147.29 13.05Q147.78 13.03 148.08 12.96L148.08 12.96L148.08 12.96Q148.39 12.89 148.55 12.73L148.55 12.73L148.55 12.73Q148.72 12.56 148.78 12.25L148.78 12.25L148.78 12.25Q148.83 11.94 148.83 11.45L148.83 11.45L148.83 4.93L148.83 4.93Q148.83 4.44 148.78 4.14L148.78 4.14L148.78 4.14Q148.74 3.84 148.59 3.66L148.59 3.66L148.59 3.66Q148.44 3.49 148.16 3.42L148.16 3.42L148.16 3.42Q147.88 3.36 147.43 3.33L147.43 3.33L147.43 2.80L151.69 2.80L151.69 3.33L151.69 3.33Q151.24 3.35 150.97 3.42L150.97 3.42L150.97 3.42Q150.70 3.49 150.55 3.67L150.55 3.67L150.55 3.67Q150.40 3.85 150.35 4.17L150.35 4.17L150.35 4.17Q150.30 4.49 150.30 5.03L150.30 5.03L150.30 7.71L155.97 7.71L155.97 4.93L155.97 4.93Q155.97 4.44 155.92 4.14L155.92 4.14L155.92 4.14Q155.88 3.84 155.73 3.66L155.73 3.66L155.73 3.66Q155.58 3.49 155.30 3.42L155.30 3.42L155.30 3.42Q155.02 3.36 154.57 3.33L154.57 3.33L154.57 2.80L158.83 2.80L158.83 3.33L158.83 3.33Q158.38 3.35 158.11 3.42L158.11 3.42L158.11 3.42Q157.84 3.49 157.69 3.67L157.69 3.67L157.69 3.67Q157.54 3.85 157.49 4.17L157.49 4.17L157.49 4.17Q157.44 4.49 157.44 5.03L157.44 5.03ZM166.04 2.66L166.04 2.66L166.04 2.66Q167.27 2.66 168.34 3.09L168.34 3.09L168.34 3.09Q169.40 3.53 170.18 4.28L170.18 4.28L170.18 4.28Q170.97 5.04 171.42 6.06L171.42 6.06L171.42 6.06Q171.86 7.08 171.86 8.27L171.86 8.27L171.86 8.27Q171.86 9.41 171.41 10.40L171.41 10.40L171.41 10.40Q170.95 11.40 170.17 12.13L170.17 12.13L170.17 12.13Q169.39 12.87 168.32 13.29L168.32 13.29L168.32 13.29Q167.26 13.72 166.04 13.72L166.04 13.72L166.04 13.72Q164.82 13.72 163.76 13.29L163.76 13.29L163.76 13.29Q162.69 12.87 161.91 12.13L161.91 12.13L161.91 12.13Q161.13 11.40 160.67 10.40L160.67 10.40L160.67 10.40Q160.22 9.41 160.22 8.27L160.22 8.27L160.22 8.27Q160.22 7.08 160.66 6.06L160.66 6.06L160.66 6.06Q161.11 5.04 161.90 4.28L161.90 4.28L161.90 4.28Q162.68 3.53 163.74 3.09L163.74 3.09L163.74 3.09Q164.81 2.66 166.04 2.66ZM166.04 12.95L166.04 12.95L166.04 12.95Q166.96 12.95 167.70 12.63L167.70 12.63L167.70 12.63Q168.43 12.31 168.96 11.70L168.96 11.70L168.96 11.70Q169.48 11.10 169.76 10.24L169.76 10.24L169.76 10.24Q170.04 9.38 170.04 8.32L170.04 8.32L170.04 8.32Q170.04 7.20 169.76 6.29L169.76 6.29L169.76 6.29Q169.48 5.39 168.97 4.75L168.97 4.75L168.97 4.75Q168.45 4.12 167.71 3.77L167.71 3.77L167.71 3.77Q166.96 3.43 166.04 3.43L166.04 3.43L166.04 3.43Q165.12 3.43 164.37 3.77L164.37 3.77L164.37 3.77Q163.63 4.12 163.11 4.75L163.11 4.75L163.11 4.75Q162.60 5.39 162.32 6.29L162.32 6.29L162.32 6.29Q162.04 7.20 162.04 8.32L162.04 8.32L162.04 8.32Q162.04 9.38 162.32 10.24L162.32 10.24L162.32 10.24Q162.60 11.10 163.11 11.70L163.11 11.70L163.11 11.70Q163.63 12.31 164.37 12.63L164.37 12.63L164.37 12.63Q165.12 12.95 166.04 12.95ZM182.60 6.41L182.60 9.24L182.60 9.24Q182.60 10.35 182.38 11.19L182.38 11.19L182.38 11.19Q182.17 12.03 181.68 12.59L181.68 12.59L181.68 12.59Q181.20 13.15 180.43 13.43L180.43 13.43L180.43 13.43Q179.66 13.72 178.57 13.72L178.57 13.72L178.57 13.72Q177.53 13.72 176.76 13.52L176.76 13.52L176.76 13.52Q175.99 13.31 175.48 12.85L175.48 12.85L175.48 12.85Q174.96 12.38 174.71 11.62L174.71 11.62L174.71 11.62Q174.45 10.86 174.45 9.76L174.45 9.76L174.45 6.06L174.45 6.06Q174.45 5.03 174.40 4.47L174.40 4.47L174.40 4.47Q174.36 3.91 174.12 3.64L174.12 3.64L174.12 3.64Q173.95 3.46 173.66 3.39L173.66 3.39L173.66 3.39Q173.38 3.33 172.90 3.33L172.90 3.33L172.90 2.80L177.67 2.80L177.67 3.33L177.67 3.33Q177.20 3.33 176.90 3.39L176.90 3.39L176.90 3.39Q176.61 3.44 176.44 3.67L176.44 3.67L176.44 3.67Q176.25 3.92 176.19 4.47L176.19 4.47L176.19 4.47Q176.13 5.03 176.13 6.06L176.13 6.06L176.13 9.87L176.13 9.87Q176.13 10.58 176.28 11.14L176.28 11.14L176.28 11.14Q176.43 11.69 176.76 12.07L176.76 12.07L176.76 12.07Q177.10 12.46 177.64 12.66L177.64 12.66L177.64 12.66Q178.18 12.85 178.96 12.85L178.96 12.85L178.96 12.85Q180.36 12.85 181.06 12.07L181.06 12.07L181.06 12.07Q181.76 11.30 181.76 9.79L181.76 9.79L181.76 6.41L181.76 6.41Q181.76 5.17 181.66 4.52L181.66 4.52L181.66 4.52Q181.57 3.88 181.30 3.61L181.30 3.61L181.30 3.61Q181.10 3.43 180.81 3.38L180.81 3.38L180.81 3.38Q180.52 3.33 180.08 3.33L180.08 3.33L180.08 2.80L184.14 2.80L184.14 3.33L184.14 3.33Q183.69 3.33 183.41 3.40L183.41 3.40L183.41 3.40Q183.12 3.47 182.95 3.71L182.95 3.71L182.95 3.71Q182.74 4.00 182.67 4.63L182.67 4.63L182.67 4.63Q182.60 5.25 182.60 6.41L182.60 6.41ZM194.43 10.82L194.22 13.58L185.18 13.58L185.18 13.05L185.18 13.05Q185.67 13.03 185.97 12.96L185.97 12.96L185.97 12.96Q186.27 12.89 186.44 12.73L186.44 12.73L186.44 12.73Q186.61 12.56 186.66 12.25L186.66 12.25L186.66 12.25Q186.72 11.94 186.72 11.45L186.72 11.45L186.72 4.93L186.72 4.93Q186.72 4.44 186.67 4.14L186.67 4.14L186.67 4.14Q186.62 3.84 186.47 3.66L186.47 3.66L186.47 3.66Q186.33 3.49 186.05 3.42L186.05 3.42L186.05 3.42Q185.77 3.36 185.32 3.33L185.32 3.33L185.32 2.80L189.57 2.80L189.57 3.33L189.57 3.33Q189.13 3.35 188.85 3.42L188.85 3.42L188.85 3.42Q188.58 3.49 188.43 3.67L188.43 3.67L188.43 3.67Q188.29 3.85 188.24 4.17L188.24 4.17L188.24 4.17Q188.19 4.49 188.19 5.03L188.19 5.03L188.19 11.06L188.19 11.06Q188.19 11.65 188.31 12.02L188.31 12.02L188.31 12.02Q188.43 12.39 188.71 12.59L188.71 12.59L188.71 12.59Q189.00 12.80 189.48 12.87L189.48 12.87L189.48 12.87Q189.95 12.95 190.68 12.95L190.68 12.95L190.68 12.95Q191.48 12.95 192.02 12.86L192.02 12.86L192.02 12.86Q192.57 12.77 192.94 12.54L192.94 12.54L192.94 12.54Q193.31 12.31 193.53 11.89L193.53 11.89L193.53 11.89Q193.75 11.48 193.90 10.82L193.90 10.82L194.43 10.82ZM200.73 13.58L195.26 13.58L195.26 13.05L195.26 13.05Q195.79 13.03 196.12 12.97L196.12 12.97L196.12 12.97Q196.45 12.91 196.63 12.73L196.63 12.73L196.63 12.73Q196.81 12.56 196.87 12.26L196.87 12.26L196.87 12.26Q196.94 11.96 196.94 11.45L196.94 11.45L196.94 4.93L196.94 4.93Q196.94 4.44 196.89 4.14L196.89 4.14L196.89 4.14Q196.84 3.84 196.69 3.66L196.69 3.66L196.69 3.66Q196.55 3.49 196.27 3.42L196.27 3.42L196.27 3.42Q195.99 3.36 195.54 3.33L195.54 3.33L195.54 2.80L200.45 2.80L200.45 2.80Q201.71 2.80 202.78 3.22L202.78 3.22L202.78 3.22Q203.85 3.64 204.63 4.38L204.63 4.38L204.63 4.38Q205.41 5.12 205.84 6.15L205.84 6.15L205.84 6.15Q206.28 7.17 206.28 8.37L206.28 8.37L206.28 8.37Q206.28 9.52 205.87 10.48L205.87 10.48L205.87 10.48Q205.46 11.44 204.73 12.12L204.73 12.12L204.73 12.12Q203.99 12.81 202.97 13.20L202.97 13.20L202.97 13.20Q201.95 13.58 200.73 13.58L200.73 13.58ZM200.42 3.49L198.65 3.49L198.65 3.49Q198.41 3.49 198.41 3.72L198.41 3.72L198.41 11.30L198.41 11.30Q198.41 12.89 200.49 12.89L200.49 12.89L200.49 12.89Q202.41 12.89 203.43 11.75L203.43 11.75L203.43 11.75Q204.46 10.61 204.46 8.40L204.46 8.40L204.46 8.40Q204.46 7.24 204.18 6.33L204.18 6.33L204.18 6.33Q203.90 5.42 203.37 4.79L203.37 4.79L203.37 4.79Q202.85 4.16 202.10 3.82L202.10 3.82L202.10 3.82Q201.36 3.49 200.42 3.49L200.42 3.49ZM217.74 2.66L217.74 2.66L217.74 2.66Q218.97 2.66 220.04 3.09L220.04 3.09L220.04 3.09Q221.10 3.53 221.89 4.28L221.89 4.28L221.89 4.28Q222.67 5.04 223.12 6.06L223.12 6.06L223.12 6.06Q223.57 7.08 223.57 8.27L223.57 8.27L223.57 8.27Q223.57 9.41 223.11 10.40L223.11 10.40L223.11 10.40Q222.66 11.40 221.87 12.13L221.87 12.13L221.87 12.13Q221.09 12.87 220.02 13.29L220.02 13.29L220.02 13.29Q218.96 13.72 217.74 13.72L217.74 13.72L217.74 13.72Q216.52 13.72 215.46 13.29L215.46 13.29L215.46 13.29Q214.40 12.87 213.61 12.13L213.61 12.13L213.61 12.13Q212.83 11.40 212.37 10.40L212.37 10.40L212.37 10.40Q211.92 9.41 211.92 8.27L211.92 8.27L211.92 8.27Q211.92 7.08 212.37 6.06L212.37 6.06L212.37 6.06Q212.81 5.04 213.60 4.28L213.60 4.28L213.60 4.28Q214.38 3.53 215.45 3.09L215.45 3.09L215.45 3.09Q216.51 2.66 217.74 2.66ZM217.74 12.95L217.74 12.95L217.74 12.95Q218.67 12.95 219.40 12.63L219.40 12.63L219.40 12.63Q220.14 12.31 220.66 11.70L220.66 11.70L220.66 11.70Q221.19 11.10 221.47 10.24L221.47 10.24L221.47 10.24Q221.75 9.38 221.75 8.32L221.75 8.32L221.75 8.32Q221.75 7.20 221.47 6.29L221.47 6.29L221.47 6.29Q221.19 5.39 220.67 4.75L220.67 4.75L220.67 4.75Q220.15 4.12 219.41 3.77L219.41 3.77L219.41 3.77Q218.67 3.43 217.74 3.43L217.74 3.43L217.74 3.43Q216.82 3.43 216.08 3.77L216.08 3.77L216.08 3.77Q215.33 4.12 214.82 4.75L214.82 4.75L214.82 4.75Q214.30 5.39 214.02 6.29L214.02 6.29L214.02 6.29Q213.74 7.20 213.74 8.32L213.74 8.32L213.74 8.32Q213.74 9.38 214.02 10.24L214.02 10.24L214.02 10.24Q214.30 11.10 214.82 11.70L214.82 11.70L214.82 11.70Q215.33 12.31 216.08 12.63L216.08 12.63L216.08 12.63Q216.82 12.95 217.74 12.95ZM233.39 5.50L233.39 5.50L233.39 5.50Q233.39 6.62 232.72 7.36L232.72 7.36L232.72 7.36Q232.05 8.11 230.58 8.36L230.58 8.36L233.67 12.08L233.67 12.08Q234.05 12.54 234.51 12.75L234.51 12.75L234.51 12.75Q234.96 12.95 235.59 13.05L235.59 13.05L235.59 13.58L232.89 13.58L229.46 9.18L229.46 9.18Q229.28 8.95 229.12 8.81L229.12 8.81L229.12 8.81Q228.96 8.67 228.78 8.59L228.78 8.59L228.78 8.59Q228.61 8.51 228.38 8.49L228.38 8.49L228.38 8.49Q228.14 8.47 227.82 8.47L227.82 8.47L227.82 11.38L227.82 11.38Q227.82 11.90 227.88 12.23L227.88 12.23L227.88 12.23Q227.95 12.56 228.15 12.74L228.15 12.74L228.15 12.74Q228.35 12.92 228.74 12.98L228.74 12.98L228.74 12.98Q229.12 13.05 229.75 13.05L229.75 13.05L229.75 13.58L224.81 13.58L224.81 13.05L224.81 13.05Q225.30 13.03 225.60 12.96L225.60 12.96L225.60 12.96Q225.90 12.89 226.07 12.73L226.07 12.73L226.07 12.73Q226.24 12.56 226.30 12.25L226.30 12.25L226.30 12.25Q226.35 11.94 226.35 11.45L226.35 11.45L226.35 4.93L226.35 4.93Q226.35 4.44 226.30 4.14L226.30 4.14L226.30 4.14Q226.25 3.84 226.11 3.66L226.11 3.66L226.11 3.66Q225.96 3.49 225.68 3.42L225.68 3.42L225.68 3.42Q225.40 3.36 224.95 3.33L224.95 3.33L224.95 2.80L229.35 2.80L229.35 2.80Q231.28 2.80 232.34 3.51L232.34 3.51L232.34 3.51Q233.39 4.23 233.39 5.50ZM227.82 3.70L227.82 7.77L228.82 7.77L228.82 7.77Q230.22 7.77 230.89 7.26L230.89 7.26L230.89 7.26Q231.57 6.75 231.57 5.57L231.57 5.57L231.57 5.57Q231.57 4.44 231.03 3.95L231.03 3.95L231.03 3.95Q230.50 3.46 229.35 3.46L229.35 3.46L228.06 3.46L228.06 3.46Q227.82 3.46 227.82 3.70L227.82 3.70ZM249.33 13.72L248.49 13.72L241.84 4.96L241.78 4.96L241.78 10.93L241.78 10.93Q241.78 11.63 241.83 12.04L241.83 12.04L241.83 12.04Q241.88 12.45 242.03 12.67L242.03 12.67L242.03 12.67Q242.17 12.89 242.45 12.96L242.45 12.96L242.45 12.96Q242.72 13.03 243.17 13.05L243.17 13.05L243.17 13.58L239.40 13.58L239.40 13.05L239.40 13.05Q239.89 13.03 240.19 12.96L240.19 12.96L240.19 12.96Q240.49 12.88 240.66 12.67L240.66 12.67L240.66 12.67Q240.83 12.46 240.88 12.07L240.88 12.07L240.88 12.07Q240.94 11.69 240.94 11.03L240.94 11.03L240.94 5.35L240.94 5.35Q240.94 4.76 240.89 4.38L240.89 4.38L240.89 4.38Q240.84 3.99 240.70 3.77L240.70 3.77L240.70 3.77Q240.55 3.54 240.27 3.45L240.27 3.45L240.27 3.45Q239.99 3.36 239.54 3.33L239.54 3.33L239.54 2.80L242.31 2.80L248.43 10.96L248.49 10.96L248.49 5.45L248.49 5.45Q248.49 4.76 248.44 4.35L248.44 4.35L248.44 4.35Q248.39 3.93 248.24 3.71L248.24 3.71L248.24 3.71Q248.09 3.49 247.82 3.42L247.82 3.42L247.82 3.42Q247.55 3.35 247.10 3.33L247.10 3.33L247.10 2.80L250.87 2.80L250.87 3.33L250.87 3.33Q250.38 3.35 250.08 3.42L250.08 3.42L250.08 3.42Q249.77 3.50 249.61 3.71L249.61 3.71L249.61 3.71Q249.44 3.92 249.38 4.31L249.38 4.31L249.38 4.31Q249.33 4.70 249.33 5.35L249.33 5.35L249.33 13.72ZM257.84 2.66L257.84 2.66L257.84 2.66Q259.07 2.66 260.13 3.09L260.13 3.09L260.13 3.09Q261.20 3.53 261.98 4.28L261.98 4.28L261.98 4.28Q262.77 5.04 263.21 6.06L263.21 6.06L263.21 6.06Q263.66 7.08 263.66 8.27L263.66 8.27L263.66 8.27Q263.66 9.41 263.21 10.40L263.21 10.40L263.21 10.40Q262.75 11.40 261.97 12.13L261.97 12.13L261.97 12.13Q261.18 12.87 260.12 13.29L260.12 13.29L260.12 13.29Q259.06 13.72 257.84 13.72L257.84 13.72L257.84 13.72Q256.62 13.72 255.56 13.29L255.56 13.29L255.56 13.29Q254.49 12.87 253.71 12.13L253.71 12.13L253.71 12.13Q252.92 11.40 252.47 10.40L252.47 10.40L252.47 10.40Q252.01 9.41 252.01 8.27L252.01 8.27L252.01 8.27Q252.01 7.08 252.46 6.06L252.46 6.06L252.46 6.06Q252.91 5.04 253.69 4.28L253.69 4.28L253.69 4.28Q254.48 3.53 255.54 3.09L255.54 3.09L255.54 3.09Q256.61 2.66 257.84 2.66ZM257.84 12.95L257.84 12.95L257.84 12.95Q258.76 12.95 259.50 12.63L259.50 12.63L259.50 12.63Q260.23 12.31 260.76 11.70L260.76 11.70L260.76 11.70Q261.28 11.10 261.56 10.24L261.56 10.24L261.56 10.24Q261.84 9.38 261.84 8.32L261.84 8.32L261.84 8.32Q261.84 7.20 261.56 6.29L261.56 6.29L261.56 6.29Q261.28 5.39 260.76 4.75L260.76 4.75L260.76 4.75Q260.25 4.12 259.50 3.77L259.50 3.77L259.50 3.77Q258.76 3.43 257.84 3.43L257.84 3.43L257.84 3.43Q256.91 3.43 256.17 3.77L256.17 3.77L256.17 3.77Q255.43 4.12 254.91 4.75L254.91 4.75L254.91 4.75Q254.39 5.39 254.11 6.29L254.11 6.29L254.11 6.29Q253.83 7.20 253.83 8.32L253.83 8.32L253.83 8.32Q253.83 9.38 254.11 10.24L254.11 10.24L254.11 10.24Q254.39 11.10 254.91 11.70L254.91 11.70L254.91 11.70Q255.43 12.31 256.17 12.63L256.17 12.63L256.17 12.63Q256.91 12.95 257.84 12.95ZM275.18 2.80L275.32 5.47L274.75 5.47L274.75 5.47Q274.71 4.87 274.55 4.47L274.55 4.47L274.55 4.47Q274.40 4.06 274.11 3.83L274.11 3.83L274.11 3.83Q273.83 3.60 273.39 3.50L273.39 3.50L273.39 3.50Q272.96 3.40 272.36 3.40L272.36 3.40L272.36 3.40Q271.84 3.40 271.52 3.42L271.52 3.42L271.52 3.42Q271.21 3.44 271.04 3.50L271.04 3.50L271.04 3.50Q270.87 3.56 270.82 3.63L270.82 3.63L270.82 3.63Q270.77 3.71 270.77 3.84L270.77 3.84L270.77 11.33L270.77 11.33Q270.77 11.77 270.84 12.10L270.84 12.10L270.84 12.10Q270.90 12.42 271.09 12.62L271.09 12.62L271.09 12.62Q271.28 12.82 271.64 12.93L271.64 12.93L271.64 12.93Q271.99 13.03 272.58 13.05L272.58 13.05L272.58 13.58L267.29 13.58L267.29 13.05L267.29 13.05Q267.88 13.03 268.24 12.93L268.24 12.93L268.24 12.93Q268.60 12.82 268.79 12.62L268.79 12.62L268.79 12.62Q268.98 12.42 269.05 12.10L269.05 12.10L269.05 12.10Q269.11 11.77 269.11 11.33L269.11 11.33L269.11 3.84L269.11 3.84Q269.11 3.71 269.06 3.63L269.06 3.63L269.06 3.63Q269.01 3.56 268.86 3.50L268.86 3.50L268.86 3.50Q268.72 3.44 268.45 3.42L268.45 3.42L268.45 3.42Q268.18 3.40 267.74 3.40L267.74 3.40L267.74 3.40Q267.19 3.40 266.72 3.44L266.72 3.44L266.72 3.44Q266.25 3.49 265.91 3.69L265.91 3.69L265.91 3.69Q265.57 3.89 265.36 4.31L265.36 4.31L265.36 4.31Q265.15 4.73 265.13 5.47L265.13 5.47L264.61 5.47L264.61 2.80L275.18 2.80Z"></path></g></svg>