<svg data-v-29081953="" xmlns="http://www.w3.org/2000/svg" viewBox="0 0 300 300"><!----><defs data-v-29081953=""><linearGradient data-v-29081953="" gradientTransform="rotate(25)" id="42ffc4d4-8898-49db-96fe-02f919dc0981" x1="0%" y1="0%" x2="100%" y2="0%"><stop data-v-29081953="" offset="0%" stop-color="#0978A6" stop-opacity="1"></stop><stop data-v-29081953="" offset="100%" stop-color="#FB9447" stop-opacity="1"></stop></linearGradient></defs><rect data-v-29081953="" fill="url(#42ffc4d4-8898-49db-96fe-02f919dc0981)" x="0" y="0" width="300px" height="300px" class="logo-background-square"></rect><!----><defs data-v-29081953=""><!----></defs><g data-v-29081953="" id="bdbd68d4-86e1-4303-b2d8-503826ec1a33" fill="#ffffff" stroke="none" transform="matrix(4.4,0,0,4.4,4.802198791503898,13.599999999999984)"><path d="M33.414 48.616c2.077 2.078 4.84 3.222 7.778 3.222s5.701-1.144 7.778-3.222c4.288-4.288 4.288-11.267 0-15.556a10.929 10.929 0 0 0-7.778-3.222c-2.938 0-5.7 1.145-7.778 3.222a10.925 10.925 0 0 0-3.222 7.777c0 2.939 1.144 5.702 3.222 7.779zm1.414-14.141a8.94 8.94 0 0 1 6.364-2.636c2.403 0 4.664.937 6.364 2.636 3.509 3.51 3.509 9.219 0 12.728-1.7 1.7-3.96 2.636-6.364 2.636s-4.664-.936-6.364-2.636-2.636-3.96-2.636-6.363c0-2.405.936-4.665 2.636-6.365z"></path><path d="M33.014 11.446a1 1 0 1 0-1.415 1.414l18.479 18.479c5.068 5.069 5.068 13.317 0 18.385s-13.316 5.068-18.385 0l-14.52-14.52a.999.999 0 1 0-1.414 1.414l14.52 14.52c2.924 2.924 6.766 4.387 10.606 4.387s7.683-1.463 10.606-4.387c5.849-5.849 5.849-15.364 0-21.213L33.014 11.446z"></path><path d="M23.515 35.889a.999.999 0 0 0 0 1.414l2.122 2.121a.997.997 0 0 0 1.414 0 .999.999 0 0 0 0-1.414l-2.122-2.121a.999.999 0 0 0-1.414 0zM20.686 34.061a.999.999 0 0 0 .707-1.707l-9.899-9.9a.999.999 0 1 0-1.414 1.414l9.899 9.9a.997.997 0 0 0 .707.293zM27.757 33.061a.997.997 0 0 0 1.414 0 .999.999 0 0 0 0-1.414l-4.95-4.95a.999.999 0 1 0-1.414 1.414l4.95 4.95zM17.858 23.161a.997.997 0 0 0 1.414 0 .999.999 0 0 0 0-1.414l-8.009-8.009a.999.999 0 1 0-1.414 1.414l8.009 8.009zM34.121 30.525a.999.999 0 0 0 .707-1.707l-1.414-1.414A.999.999 0 1 0 32 28.818l1.414 1.414a.997.997 0 0 0 .707.293zM27.757 24.575a.997.997 0 0 0 1.414 0 .999.999 0 0 0 0-1.414l-4.243-4.243a.999.999 0 1 0-1.414 1.414l4.243 4.243zM19.979 16.797a.997.997 0 0 0 1.414 0 .999.999 0 0 0 0-1.414l-2.121-2.122a.999.999 0 1 0-1.414 1.414l2.121 2.122zM32 17.504a.999.999 0 1 0-1.414 1.414l8.485 8.485a.997.997 0 0 0 1.414 0 .999.999 0 0 0 0-1.414L32 17.504zM26.343 14.675a.997.997 0 0 0 1.414 0 .999.999 0 0 0 0-1.414l-2.829-2.828a.999.999 0 1 0-1.414 1.414l2.829 2.828z"></path><circle cx="9" cy="34" r="1"></circle><circle cx="9" cy="38.293" r="1"></circle><circle cx="29.878" cy="7" r="1"></circle><circle cx="43.313" cy="14.676" r="1"></circle><circle cx="49" cy="23.161" r="1"></circle><circle cx="25" cy="51" r="1"></circle><circle cx="20" cy="46" r="1"></circle><circle cx="28" cy="55" r="1"></circle><circle cx="56.999" cy="31" r="1"></circle><circle cx="13" cy="45" r="1"></circle><path d="M44.728 45.788a.997.997 0 0 0 1.414 0c1.323-1.322 2.053-3.08 2.053-4.949s-.729-3.627-2.053-4.95a.999.999 0 1 0-1.414 1.414 4.97 4.97 0 0 1 1.467 3.536c0 1.334-.521 2.59-1.467 3.535a.999.999 0 0 0 0 1.414z"></path></g><!----></svg>